<?xml version="1.0" encoding="UTF-8" standalone="no"?>
<svg width="100px" height="100px" viewBox="0 0 100 100" version="1.1" xmlns="http://www.w3.org/2000/svg" xmlns:xlink="http://www.w3.org/1999/xlink">
    <!-- Generator: Sketch 39.1 (31720) - http://www.bohemiancoding.com/sketch -->
    <title>mmda-logo</title>
    <desc>Created with Sketch.</desc>
    <defs></defs>
    <g id="Symbols" stroke="none" stroke-width="1" fill="none" fill-rule="evenodd">
        <g id="desktop/menu-branco-internas">
            <g id="desktop/menu-internas">
                <g>
                    <g id="mmda-logo">
                        <path d="M50,100 C77.6014109,100 100,77.6014109 100,50 C100,22.3985891 77.6014109,0 50,0 C22.3544974,0 0,22.3985891 0,50 C0,77.6014109 22.3985891,100 50,100 Z" id="Shape" fill="#000000"></path>
                        <path d="M78.266522,52.4126214 C78.9832068,49.0485437 80.2732393,48 82.6144095,48 C83.1399783,48 83.6177681,48 84,48.0873786 L82.2321776,56.3446602 C81.7066088,56.7378641 81.037703,57 80.1299024,57 C78.314301,57 77.5498373,55.7330097 78.266522,52.4126214 L78.266522,52.4126214 Z M86.9947645,55.7894737 L89,45.6578947 C89,45.6578947 85.9253055,45 82.5386855,45 C78.1271674,45 75.1861552,47.4122807 74.2503787,52.3245614 C73.3146021,57.1052632 75.0524729,60 78.617336,60 C80.2215245,60 81.5137874,59.3421053 82.5386855,58.4649123 C82.8951718,59.4298246 83.92007,60 85.7916232,60 C87.6631763,60 88.2870274,59.6491228 88.2870274,59.6491228 L88.9108784,56.4912281 C88.9108784,56.4912281 88.2870274,56.7105263 87.6186155,56.7105263 C86.9056429,56.7105263 86.8610821,56.5789474 86.9947645,55.7894737 L86.9947645,55.7894737 Z M62.266522,52.4126214 C61.5498373,55.7330097 62.314301,57 64.1299024,57 C65.037703,57 65.7543878,56.7378641 66.2321776,56.3446602 L68,48.0873786 C67.6177681,48.0436893 67.1399783,48 66.6144095,48 C64.2732393,48 62.9832068,49.0485437 62.266522,52.4126214 L62.266522,52.4126214 Z M70.9470615,55.8605664 C70.814325,56.6448802 70.8585705,56.7320261 71.5222528,56.7320261 C72.1859351,56.7320261 72.8053719,56.5141612 72.8053719,56.5141612 L72.1859351,59.6514161 C72.1859351,59.6514161 71.5222528,60 69.7081879,60 C67.8498775,60 66.8322313,59.3899782 66.4782674,58.4749455 C65.5048667,59.3464052 64.2217476,60 62.5846646,60 C59.0450258,60 57.3194518,57.124183 58.248607,52.3747277 C59.2220077,47.4945534 62.1422098,45.0980392 66.4782674,45.0980392 C67.2304407,45.0980392 67.9383684,45.1416122 68.6020507,45.1851852 L69.6196969,40 L74,40 L70.9470615,55.8605664 L70.9470615,55.8605664 Z M48.7273475,47.3214286 C49.9509846,46.2946429 51.7864404,45 53.7092988,45 C56.5061838,45 57.3802104,46.5625 56.8557944,49.2410714 L54.801832,60 L50.4754006,60 L52.3545577,50.0892857 C52.5730643,48.9285714 52.3108563,48.5714286 51.6116351,48.5714286 C50.6939072,48.5714286 48.9458541,49.6428571 48.4651395,49.9553571 L46.5422811,60 L42.2158496,60 L44.0950067,50.0446429 C44.3135134,48.8839286 44.0513054,48.5267857 43.3520841,48.5267857 C42.4343563,48.5267857 40.6863031,49.5982143 40.2055885,49.9107143 L38,60 L34,60 L36.796885,45.1785714 L41.1233164,45.1785714 L40.7737058,46.9642857 C41.9536417,46.0714286 43.6579934,45 45.4497479,45 C47.5037103,45 48.5088408,45.8482143 48.7273475,47.3214286 Z M25.7273475,47.3214286 C26.9509846,46.2946429 28.7864404,45 30.7092988,45 C33.5061838,45 34.3802104,46.5625 33.8557944,49.2410714 L31.801832,60 L27.4754006,60 L29.3545577,50.0892857 C29.5730643,48.9285714 29.3108563,48.5714286 28.6116351,48.5714286 C27.6939072,48.5714286 25.9458541,49.6428571 25.4651395,49.9553571 L23.5859824,60 L19.2595509,60 L21.138708,50.0446429 C21.3572147,48.8839286 21.0950067,48.5267857 20.3957855,48.5267857 C19.4780576,48.5267857 17.7300045,49.5982143 17.2492899,49.9107143 L15,60 L11,60 L13.796885,45.1785714 L18.1233164,45.1785714 L17.7737058,46.9642857 C18.997343,46.0714286 20.6579934,45 22.4497479,45 C24.5037103,45 25.5088408,45.8482143 25.7273475,47.3214286 Z" id="Shape" fill="#FFFFFF"></path>
                    </g>
                </g>
            </g>
        </g>
    </g>
</svg>